<svg width="36" height="36" viewBox="0 0 36 36" fill="none" xmlns="http://www.w3.org/2000/svg">
<path d="M19.6339 5.20244C19.6339 4.6209 19.4029 4.06318 18.9917 3.65196C18.5805 3.24075 18.0228 3.00974 17.4412 3.00974C16.8597 3.00974 16.302 3.24075 15.8908 3.65196C15.4795 4.06318 15.2485 4.6209 15.2485 5.20244V14.7042H5.74679C5.16524 14.7042 4.60752 14.9352 4.19631 15.3464C3.78509 15.7576 3.55408 16.3153 3.55408 16.8969C3.55408 17.4784 3.78509 18.0362 4.19631 18.4474C4.60752 18.8586 5.16524 19.0896 5.74679 19.0896H15.2485V28.5913C15.2485 29.1729 15.4795 29.7306 15.8908 30.1418C16.302 30.553 16.8597 30.784 17.4412 30.784C18.0228 30.784 18.5805 30.553 18.9917 30.1418C19.4029 29.7306 19.6339 29.1729 19.6339 28.5913V19.0896H29.1357C29.7172 19.0896 30.2749 18.8586 30.6862 18.4474C31.0974 18.0362 31.3284 17.4784 31.3284 16.8969C31.3284 16.3153 31.0974 15.7576 30.6862 15.3464C30.2749 14.9352 29.7172 14.7042 29.1357 14.7042H19.6339V5.20244Z" fill="white"/>
</svg>
